<?xml version="1.0" encoding="UTF-8" standalone="no"?>
<!-- Created with Inkscape (http://www.inkscape.org/) -->

<svg
   width="128mm"
   height="128mm"
   viewBox="0 0 128 128"
   version="1.1"
   id="svg5"
   sodipodi:docname="icon.svg"
   inkscape:version="1.1 (c4e8f9ed74, 2021-05-24)"
   xmlns:inkscape="http://www.inkscape.org/namespaces/inkscape"
   xmlns:sodipodi="http://sodipodi.sourceforge.net/DTD/sodipodi-0.dtd"
   xmlns="http://www.w3.org/2000/svg"
   xmlns:svg="http://www.w3.org/2000/svg">
  <sodipodi:namedview
     id="namedview7"
     pagecolor="#505050"
     bordercolor="#eeeeee"
     borderopacity="1"
     inkscape:pageshadow="0"
     inkscape:pageopacity="0"
     inkscape:pagecheckerboard="0"
     inkscape:document-units="mm"
     showgrid="false"
     inkscape:zoom="0.80063872"
     inkscape:cx="456.51052"
     inkscape:cy="419.04044"
     inkscape:window-width="1860"
     inkscape:window-height="996"
     inkscape:window-x="0"
     inkscape:window-y="0"
     inkscape:window-maximized="1"
     inkscape:current-layer="g47533"
     height="209mm" />
  <defs
     id="defs2">
    <inkscape:path-effect
       effect="fillet_chamfer"
       id="path-effect2224"
       is_visible="true"
       lpeversion="1"
       satellites_param="F,0,0,1,0,2.6458333,0,1 @ F,0,0,1,0,2.6458333,0,1 @ F,0,0,1,0,2.6458333,0,1 @ F,0,0,1,0,2.6458333,0,1 @ F,0,0,1,0,2.6458333,0,1 @ F,0,0,1,0,0,0,1 @ F,0,0,1,0,0,0,1 @ F,0,0,1,0,2.6458333,0,1"
       unit="px"
       method="auto"
       mode="F"
       radius="10"
       chamfer_steps="1"
       flexible="false"
       use_knot_distance="true"
       apply_no_radius="true"
       apply_with_radius="true"
       only_selected="false"
       hide_knots="false" />
    <inkscape:path-effect
       effect="fillet_chamfer"
       id="path-effect2195"
       is_visible="true"
       lpeversion="1"
       satellites_param="F,0,0,1,0,2.6458333,0,1 @ F,0,0,1,0,2.6458333,0,1 @ F,0,0,1,0,2.6458333,0,1 @ F,0,0,1,0,2.6458333,0,1 @ F,0,0,1,0,2.6458333,0,1 @ F,0,0,1,0,0,0,1 @ F,0,0,1,0,0,0,1 @ F,0,0,1,0,2.6458333,0,1"
       unit="px"
       method="auto"
       mode="F"
       radius="10"
       chamfer_steps="1"
       flexible="false"
       use_knot_distance="true"
       apply_no_radius="true"
       apply_with_radius="true"
       only_selected="false"
       hide_knots="false" />
    <inkscape:path-effect
       effect="fillet_chamfer"
       id="path-effect1434"
       is_visible="true"
       lpeversion="1"
       satellites_param="F,0,0,1,0,2.6458333,0,1 @ F,0,0,1,0,2.6458333,0,1 @ F,0,0,1,0,2.6458333,0,1 @ F,0,0,1,0,2.6458333,0,1 @ F,0,0,1,0,2.6458333,0,1 @ F,0,0,1,0,0,0,1 @ F,0,0,1,0,0,0,1 @ F,0,0,1,0,2.6458333,0,1"
       unit="px"
       method="auto"
       mode="F"
       radius="10"
       chamfer_steps="1"
       flexible="false"
       use_knot_distance="true"
       apply_no_radius="true"
       apply_with_radius="true"
       only_selected="false"
       hide_knots="false" />
    <inkscape:path-effect
       effect="fillet_chamfer"
       id="path-effect1405"
       is_visible="true"
       lpeversion="1"
       satellites_param="F,0,0,1,0,2.6458333,0,1 @ F,0,0,1,0,2.6458333,0,1 @ F,0,0,1,0,2.6458333,0,1 @ F,0,0,1,0,2.6458333,0,1 @ F,0,0,1,0,2.6458333,0,1 @ F,0,0,1,0,0.11314188,0,1 @ F,0,0,1,0,0,0,1 @ F,0,0,1,0,2.6458333,0,1"
       unit="px"
       method="auto"
       mode="F"
       radius="10"
       chamfer_steps="1"
       flexible="false"
       use_knot_distance="true"
       apply_no_radius="true"
       apply_with_radius="true"
       only_selected="false"
       hide_knots="false" />
    <inkscape:path-effect
       effect="fillet_chamfer"
       id="path-effect1296"
       is_visible="true"
       lpeversion="1"
       satellites_param="F,0,0,1,0,7.4083333,0,1 @ F,0,0,1,0,7.4083333,0,1 @ F,0,0,1,0,7.4083333,0,1 @ F,0,0,1,0,7.4083333,0,1 @ F,0,0,1,0,7.4083333,0,1 @ F,0,0,1,0,7.4083333,0,1 @ F,0,0,1,0,7.4083333,0,1 @ F,0,0,1,0,7.4083333,0,1"
       unit="px"
       method="auto"
       mode="F"
       radius="28"
       chamfer_steps="1"
       flexible="false"
       use_knot_distance="true"
       apply_no_radius="true"
       apply_with_radius="true"
       only_selected="false"
       hide_knots="false" />
    <inkscape:path-effect
       effect="fillet_chamfer"
       id="path-effect1268"
       is_visible="true"
       lpeversion="1"
       satellites_param="F,0,0,1,0,7.4083333,0,1 @ F,0,0,1,0,7.4083333,0,1 @ F,0,0,1,0,7.4083333,0,1 @ F,0,0,1,0,7.4083333,0,1 @ F,0,0,1,0,7.4083333,0,1 @ F,0,0,1,0,7.4083333,0,1 @ F,0,0,1,0,7.4083333,0,1 @ F,0,0,1,0,7.4083333,0,1"
       unit="px"
       method="auto"
       mode="F"
       radius="28"
       chamfer_steps="1"
       flexible="false"
       use_knot_distance="true"
       apply_no_radius="true"
       apply_with_radius="true"
       only_selected="false"
       hide_knots="false" />
  </defs>
  <g
     inkscape:label="Layer 1"
     inkscape:groupmode="layer"
     id="layer1">
    <g
       id="g33221"
       transform="translate(2.4971669,-52.439332)">
      <g
         id="g47533"
         transform="translate(-6.7789307)">
        <g
           id="g41876"
           transform="matrix(1.2977976,0,0,1.2977976,-27.52071,-21.048478)">
          <path
             sodipodi:type="star"
             style="fill:#ff3c5e;fill-opacity:1"
             id="path6110"
             inkscape:flatsided="true"
             sodipodi:sides="4"
             sodipodi:cx="404.37659"
             sodipodi:cy="555.92181"
             sodipodi:r1="396.75754"
             sodipodi:r2="280.54996"
             sodipodi:arg1="-0.78539816"
             sodipodi:arg2="0"
             inkscape:rounded="0.22"
             inkscape:randomized="0.004"
             d="m 684.5796,274.30321 c 86.73361,87.77342 87.84634,474.60941 0.002,561.39616 -87.84399,86.78675 -473.17341,89.53022 -560.70667,2.1889 -87.533258,-87.34133 -87.273473,-473.91654 -0.002,-561.39616 87.27112,-87.47963 473.97306,-89.96232 560.70666,-2.1889 z"
             transform="matrix(0.1075991,0,0,0.1075991,30.329304,46.12655)"
             inkscape:transform-center-x="0.020587957"
             inkscape:transform-center-y="-0.0039052415" />
          <g
             id="g2942"
             transform="matrix(0.40667376,0,0,0.40667376,19.959181,37.418248)">
            <path
               id="rect1052-7"
               style="fill:#ffffff;stroke-width:0.264583"
               d="m 99.823242,117.74623 v 19.0345 a 2.6458333,2.6458333 135 0 1 -2.645833,2.64583 H 78.142915 a 2.6458333,2.6458333 135 0 0 -2.645833,2.64583 v 12.58425 a 2.6458333,2.6458333 45 0 0 2.645833,2.64583 h 19.034494 a 2.6458333,2.6458333 45 0 1 2.645833,2.64583 v 21.56719 a 0.11314188,0.11314188 45 0 0 0.113142,0.11314 h 17.762256 v -63.8824 a 2.6458333,2.6458333 45 0 0 -2.64583,-2.64583 h -12.58373 a 2.6458333,2.6458333 135 0 0 -2.645838,2.64583 z"
               inkscape:path-effect="#path-effect1405"
               inkscape:original-d="m 99.823242,115.1004 v 24.32616 h -24.32616 v 17.87591 h 24.32616 v 24.32616 H 117.69864 V 115.1004 Z" />
            <path
               id="rect1052-7-56"
               style="fill:#ffffff;stroke-width:0.264583"
               d="m 161.32666,222.15257 v -19.0345 a 2.6458333,2.6458333 135 0 1 2.64583,-2.64583 h 19.0345 a 2.6458333,2.6458333 135 0 0 2.64583,-2.64583 v -12.58425 a 2.6458333,2.6458333 45 0 0 -2.64583,-2.64583 h -19.0345 a 2.6458333,2.6458333 45 0 1 -2.64583,-2.64583 v -21.68033 h -17.8754 v 63.8824 a 2.6458333,2.6458333 45 0 0 2.64583,2.64583 h 12.58374 a 2.6458333,2.6458333 135 0 0 2.64583,-2.64583 z"
               inkscape:path-effect="#path-effect2224"
               inkscape:original-d="m 161.32666,224.7984 v -24.32616 h 24.32616 v -17.87591 h -24.32616 v -24.32616 h -17.8754 v 66.52823 z" />
            <path
               id="rect1052-7-3"
               style="fill:#ffffff;stroke-width:0.264583"
               d="M 77.945088,200.80801 H 96.97958 a 2.6458333,2.6458333 45 0 1 2.645833,2.64583 v 19.03449 a 2.6458333,2.6458333 45 0 0 2.645837,2.64583 h 12.58424 a 2.6458333,2.6458333 135 0 0 2.64583,-2.64583 l 0,-19.0345 a 2.6458333,2.6458333 135 0 1 2.64583,-2.64583 h 21.68033 V 182.93262 H 77.945088 a 2.6458333,2.6458333 135 0 0 -2.645833,2.64583 v 12.58373 a 2.6458333,2.6458333 45 0 0 2.645833,2.64583 z"
               inkscape:path-effect="#path-effect2195"
               inkscape:original-d="m 75.299255,200.80801 h 24.326158 v 24.32615 H 117.50132 V 200.808 h 24.32616 V 182.93262 H 75.299255 Z" />
            <path
               id="rect1052-7-5"
               style="fill:#ffffff;stroke-width:0.264583"
               d="m 183.05463,139.01897 h -19.0345 a 2.6458333,2.6458333 45 0 1 -2.64583,-2.64583 l 0,-19.0345 a 2.6458333,2.6458333 45 0 0 -2.64583,-2.64583 l -12.58425,0 a 2.6458333,2.6458333 135 0 0 -2.64583,2.64583 v 19.0345 a 2.6458333,2.6458333 135 0 1 -2.64583,2.64583 h -21.68033 v 17.87541 h 63.8824 a 2.6458333,2.6458333 135 0 0 2.64583,-2.64583 V 141.6648 a 2.6458333,2.6458333 45 0 0 -2.64583,-2.64583 z"
               inkscape:path-effect="#path-effect1434"
               inkscape:original-d="M 185.70046,139.01897 H 161.3743 v -24.32616 h -17.87591 v 24.32616 h -24.32616 v 17.87541 h 66.52823 z" />
          </g>
        </g>
      </g>
    </g>
  </g>
</svg>
