<?xml version="1.0" encoding="UTF-8" standalone="no"?>
<!-- Created with Inkscape (http://www.inkscape.org/) -->

<svg
   width="297mm"
   height="107mm"
   viewBox="0 0 297 107"
   version="1.1"
   id="svg5"
   sodipodi:docname="icon2.svg"
   inkscape:version="1.1 (c4e8f9ed74, 2021-05-24)"
   xmlns:inkscape="http://www.inkscape.org/namespaces/inkscape"
   xmlns:sodipodi="http://sodipodi.sourceforge.net/DTD/sodipodi-0.dtd"
   xmlns="http://www.w3.org/2000/svg"
   xmlns:svg="http://www.w3.org/2000/svg">
  <sodipodi:namedview
     id="namedview7"
     pagecolor="#505050"
     bordercolor="#eeeeee"
     borderopacity="1"
     inkscape:pageshadow="0"
     inkscape:pageopacity="0"
     inkscape:pagecheckerboard="0"
     inkscape:document-units="mm"
     showgrid="false"
     inkscape:zoom="2.2645483"
     inkscape:cx="356.80405"
     inkscape:cy="176.41487"
     inkscape:window-width="1920"
     inkscape:window-height="1054"
     inkscape:window-x="0"
     inkscape:window-y="26"
     inkscape:window-maximized="1"
     inkscape:current-layer="g33221"
     height="209mm" />
  <defs
     id="defs2">
    <inkscape:path-effect
       effect="fillet_chamfer"
       id="path-effect2224"
       is_visible="true"
       lpeversion="1"
       satellites_param="F,0,0,1,0,2.6458333,0,1 @ F,0,0,1,0,2.6458333,0,1 @ F,0,0,1,0,2.6458333,0,1 @ F,0,0,1,0,2.6458333,0,1 @ F,0,0,1,0,2.6458333,0,1 @ F,0,0,1,0,0,0,1 @ F,0,0,1,0,0,0,1 @ F,0,0,1,0,2.6458333,0,1"
       unit="px"
       method="auto"
       mode="F"
       radius="10"
       chamfer_steps="1"
       flexible="false"
       use_knot_distance="true"
       apply_no_radius="true"
       apply_with_radius="true"
       only_selected="false"
       hide_knots="false" />
    <inkscape:path-effect
       effect="fillet_chamfer"
       id="path-effect2195"
       is_visible="true"
       lpeversion="1"
       satellites_param="F,0,0,1,0,2.6458333,0,1 @ F,0,0,1,0,2.6458333,0,1 @ F,0,0,1,0,2.6458333,0,1 @ F,0,0,1,0,2.6458333,0,1 @ F,0,0,1,0,2.6458333,0,1 @ F,0,0,1,0,0,0,1 @ F,0,0,1,0,0,0,1 @ F,0,0,1,0,2.6458333,0,1"
       unit="px"
       method="auto"
       mode="F"
       radius="10"
       chamfer_steps="1"
       flexible="false"
       use_knot_distance="true"
       apply_no_radius="true"
       apply_with_radius="true"
       only_selected="false"
       hide_knots="false" />
    <inkscape:path-effect
       effect="fillet_chamfer"
       id="path-effect1434"
       is_visible="true"
       lpeversion="1"
       satellites_param="F,0,0,1,0,2.6458333,0,1 @ F,0,0,1,0,2.6458333,0,1 @ F,0,0,1,0,2.6458333,0,1 @ F,0,0,1,0,2.6458333,0,1 @ F,0,0,1,0,2.6458333,0,1 @ F,0,0,1,0,0,0,1 @ F,0,0,1,0,0,0,1 @ F,0,0,1,0,2.6458333,0,1"
       unit="px"
       method="auto"
       mode="F"
       radius="10"
       chamfer_steps="1"
       flexible="false"
       use_knot_distance="true"
       apply_no_radius="true"
       apply_with_radius="true"
       only_selected="false"
       hide_knots="false" />
    <inkscape:path-effect
       effect="fillet_chamfer"
       id="path-effect1405"
       is_visible="true"
       lpeversion="1"
       satellites_param="F,0,0,1,0,2.6458333,0,1 @ F,0,0,1,0,2.6458333,0,1 @ F,0,0,1,0,2.6458333,0,1 @ F,0,0,1,0,2.6458333,0,1 @ F,0,0,1,0,2.6458333,0,1 @ F,0,0,1,0,0.11314188,0,1 @ F,0,0,1,0,0,0,1 @ F,0,0,1,0,2.6458333,0,1"
       unit="px"
       method="auto"
       mode="F"
       radius="10"
       chamfer_steps="1"
       flexible="false"
       use_knot_distance="true"
       apply_no_radius="true"
       apply_with_radius="true"
       only_selected="false"
       hide_knots="false" />
    <inkscape:path-effect
       effect="fillet_chamfer"
       id="path-effect1296"
       is_visible="true"
       lpeversion="1"
       satellites_param="F,0,0,1,0,7.4083333,0,1 @ F,0,0,1,0,7.4083333,0,1 @ F,0,0,1,0,7.4083333,0,1 @ F,0,0,1,0,7.4083333,0,1 @ F,0,0,1,0,7.4083333,0,1 @ F,0,0,1,0,7.4083333,0,1 @ F,0,0,1,0,7.4083333,0,1 @ F,0,0,1,0,7.4083333,0,1"
       unit="px"
       method="auto"
       mode="F"
       radius="28"
       chamfer_steps="1"
       flexible="false"
       use_knot_distance="true"
       apply_no_radius="true"
       apply_with_radius="true"
       only_selected="false"
       hide_knots="false" />
    <inkscape:path-effect
       effect="fillet_chamfer"
       id="path-effect1268"
       is_visible="true"
       lpeversion="1"
       satellites_param="F,0,0,1,0,7.4083333,0,1 @ F,0,0,1,0,7.4083333,0,1 @ F,0,0,1,0,7.4083333,0,1 @ F,0,0,1,0,7.4083333,0,1 @ F,0,0,1,0,7.4083333,0,1 @ F,0,0,1,0,7.4083333,0,1 @ F,0,0,1,0,7.4083333,0,1 @ F,0,0,1,0,7.4083333,0,1"
       unit="px"
       method="auto"
       mode="F"
       radius="28"
       chamfer_steps="1"
       flexible="false"
       use_knot_distance="true"
       apply_no_radius="true"
       apply_with_radius="true"
       only_selected="false"
       hide_knots="false" />
  </defs>
  <g
     inkscape:label="Layer 1"
     inkscape:groupmode="layer"
     id="layer1">
    <g
       id="g33221"
       transform="translate(2.4971669,-52.439332)">
      <g
         id="g47533"
         transform="translate(-6.7789307)">
        <g
           id="g41876"
           transform="translate(6.9941132)">
          <path
             sodipodi:type="star"
             style="fill:#ff3c5e;fill-opacity:1"
             id="path6110"
             inkscape:flatsided="true"
             sodipodi:sides="4"
             sodipodi:cx="404.37659"
             sodipodi:cy="555.92181"
             sodipodi:r1="396.75754"
             sodipodi:r2="280.54996"
             sodipodi:arg1="-0.78539816"
             sodipodi:arg2="0"
             inkscape:rounded="0.22"
             inkscape:randomized="0.004"
             d="m 684.5796,274.30321 c 86.73361,87.77342 87.84634,474.60941 0.002,561.39616 -87.84399,86.78675 -473.17341,89.53022 -560.70667,2.1889 -87.533258,-87.34133 -87.273473,-473.91654 -0.002,-561.39616 87.27112,-87.47963 473.97306,-89.96232 560.70666,-2.1889 z"
             transform="matrix(0.1075991,0,0,0.1075991,30.329304,46.12655)"
             inkscape:transform-center-x="0.020587957"
             inkscape:transform-center-y="-0.0039052415" />
          <g
             id="g2942"
             transform="matrix(0.40667376,0,0,0.40667376,19.959181,37.418248)">
            <path
               id="rect1052-7"
               style="fill:#ffffff;stroke-width:0.264583"
               d="m 99.823242,117.74623 v 19.0345 a 2.6458333,2.6458333 135 0 1 -2.645833,2.64583 H 78.142915 a 2.6458333,2.6458333 135 0 0 -2.645833,2.64583 v 12.58425 a 2.6458333,2.6458333 45 0 0 2.645833,2.64583 h 19.034494 a 2.6458333,2.6458333 45 0 1 2.645833,2.64583 v 21.56719 a 0.11314188,0.11314188 45 0 0 0.113142,0.11314 h 17.762256 v -63.8824 a 2.6458333,2.6458333 45 0 0 -2.64583,-2.64583 h -12.58373 a 2.6458333,2.6458333 135 0 0 -2.645838,2.64583 z"
               inkscape:path-effect="#path-effect1405"
               inkscape:original-d="m 99.823242,115.1004 v 24.32616 h -24.32616 v 17.87591 h 24.32616 v 24.32616 H 117.69864 V 115.1004 Z" />
            <path
               id="rect1052-7-56"
               style="fill:#ffffff;stroke-width:0.264583"
               d="m 161.32666,222.15257 v -19.0345 a 2.6458333,2.6458333 135 0 1 2.64583,-2.64583 h 19.0345 a 2.6458333,2.6458333 135 0 0 2.64583,-2.64583 v -12.58425 a 2.6458333,2.6458333 45 0 0 -2.64583,-2.64583 h -19.0345 a 2.6458333,2.6458333 45 0 1 -2.64583,-2.64583 v -21.68033 h -17.8754 v 63.8824 a 2.6458333,2.6458333 45 0 0 2.64583,2.64583 h 12.58374 a 2.6458333,2.6458333 135 0 0 2.64583,-2.64583 z"
               inkscape:path-effect="#path-effect2224"
               inkscape:original-d="m 161.32666,224.7984 v -24.32616 h 24.32616 v -17.87591 h -24.32616 v -24.32616 h -17.8754 v 66.52823 z" />
            <path
               id="rect1052-7-3"
               style="fill:#ffffff;stroke-width:0.264583"
               d="M 77.945088,200.80801 H 96.97958 a 2.6458333,2.6458333 45 0 1 2.645833,2.64583 v 19.03449 a 2.6458333,2.6458333 45 0 0 2.645837,2.64583 h 12.58424 a 2.6458333,2.6458333 135 0 0 2.64583,-2.64583 v -19.0345 a 2.6458333,2.6458333 135 0 1 2.64583,-2.64583 h 21.68033 V 182.93262 H 77.945088 a 2.6458333,2.6458333 135 0 0 -2.645833,2.64583 v 12.58373 a 2.6458333,2.6458333 45 0 0 2.645833,2.64583 z"
               inkscape:path-effect="#path-effect2195"
               inkscape:original-d="m 75.299255,200.80801 h 24.326158 v 24.32615 H 117.50132 V 200.808 h 24.32616 V 182.93262 H 75.299255 Z" />
            <path
               id="rect1052-7-5"
               style="fill:#ffffff;stroke-width:0.264583"
               d="m 183.05463,139.01897 h -19.0345 a 2.6458333,2.6458333 45 0 1 -2.64583,-2.64583 v -19.0345 a 2.6458333,2.6458333 45 0 0 -2.64583,-2.64583 h -12.58425 a 2.6458333,2.6458333 135 0 0 -2.64583,2.64583 v 19.0345 a 2.6458333,2.6458333 135 0 1 -2.64583,2.64583 h -21.68033 v 17.87541 h 63.8824 a 2.6458333,2.6458333 135 0 0 2.64583,-2.64583 V 141.6648 a 2.6458333,2.6458333 45 0 0 -2.64583,-2.64583 z"
               inkscape:path-effect="#path-effect1434"
               inkscape:original-d="M 185.70046,139.01897 H 161.3743 v -24.32616 h -17.87591 v 24.32616 h -24.32616 v 17.87541 h 66.52823 z" />
          </g>
        </g>
        <g
           aria-label="e        Dnevnik"
           id="text8754"
           style="font-weight:bold;font-size:43.0395px;line-height:1.25;font-family:Ubuntu;-inkscape-font-specification:'Ubuntu Bold';fill:#ffffff;stroke-width:1.00552">
          <path
             d="m 15.787176,111.19015 q 0,-3.01277 0.903829,-5.25082 0.946869,-2.28109 2.453252,-3.78748 1.506382,-1.50638 3.44316,-2.28109 1.979817,-0.774711 4.045713,-0.774711 4.820424,0 7.617992,2.969721 2.797567,2.92669 2.797567,8.65094 0,0.55952 -0.04304,1.24815 -0.04304,0.64559 -0.08608,1.16207 H 22.372219 q 0.215198,1.97981 1.850699,3.14188 1.635501,1.16207 4.390029,1.16207 1.76462,0 3.44316,-0.30128 1.72158,-0.34432 2.797568,-0.81775 l 0.86079,5.20778 q -0.516474,0.25824 -1.377264,0.51647 -0.86079,0.25824 -1.936778,0.4304 -1.032948,0.2152 -2.238054,0.34431 -1.205106,0.12912 -2.410212,0.12912 -3.055805,0 -5.336898,-0.90383 -2.238054,-0.90383 -3.744437,-2.45325 -1.463343,-1.59246 -2.195014,-3.74444 -0.688632,-2.15197 -0.688632,-4.64826 z m 15.063825,-2.45325 q -0.04304,-0.81775 -0.301276,-1.59246 -0.215198,-0.77472 -0.731672,-1.37727 -0.473435,-0.60255 -1.248146,-0.98991 -0.731671,-0.38735 -1.850698,-0.38735 -1.075988,0 -1.850699,0.38735 -0.774711,0.34432 -1.291185,0.94687 -0.516474,0.60256 -0.81775,1.42031 -0.258237,0.77471 -0.387356,1.59246 z"
             id="path838" />
          <path
             d="m 131.77854,116.87136 q 0.47344,0.043 1.07599,0.0861 0.64559,0 1.50638,0 5.03562,0 7.44583,-2.53933 2.45326,-2.53933 2.45326,-7.01544 0,-4.6913 -2.32414,-7.10152 -2.32413,-2.410207 -7.35975,-2.410207 -0.68863,0 -1.4203,0.04304 -0.73168,0 -1.37727,0.08608 z m 19.41082,-9.46869 q 0,3.87356 -1.20511,6.7572 -1.20511,2.88365 -3.44316,4.77739 -2.19501,1.89374 -5.37994,2.84061 -3.18492,0.94686 -7.14455,0.94686 -1.80766,0 -4.21788,-0.17215 -2.41021,-0.12912 -4.73434,-0.60256 V 92.898361 q 2.32413,-0.430395 4.82042,-0.559514 2.53933,-0.172158 4.34699,-0.172158 3.83052,0 6.92936,0.86079 3.14189,0.86079 5.37994,2.711489 2.23805,1.850698 3.44316,4.734342 1.20511,2.88365 1.20511,6.92936 z"
             id="path840" />
          <path
             d="m 156.35407,100.47331 q 1.6355,-0.473432 4.21787,-0.860787 2.58237,-0.430395 5.42298,-0.430395 2.88364,0 4.77738,0.774711 1.93678,0.731671 3.05581,2.108931 1.11902,1.37727 1.59246,3.27101 0.47343,1.89373 0.47343,4.21787 v 12.78273 h -6.41288 v -12.00802 q 0,-3.09885 -0.81775,-4.39003 -0.81775,-1.29119 -3.05581,-1.29119 -0.68863,0 -1.46334,0.0861 -0.77471,0.043 -1.37727,0.12912 v 17.47404 h -6.41288 z"
             id="path842" />
          <path
             d="m 180.6283,111.19015 q 0,-3.01277 0.90383,-5.25082 0.94687,-2.28109 2.45325,-3.78748 1.50638,-1.50638 3.44316,-2.28109 1.97982,-0.774711 4.04572,-0.774711 4.82042,0 7.61799,2.969721 2.79756,2.92669 2.79756,8.65094 0,0.55952 -0.043,1.24815 -0.043,0.64559 -0.0861,1.16207 h -14.54736 q 0.2152,1.97981 1.8507,3.14188 1.6355,1.16207 4.39003,1.16207 1.76462,0 3.44316,-0.30128 1.72158,-0.34432 2.79757,-0.81775 l 0.86079,5.20778 q -0.51647,0.25824 -1.37726,0.51647 -0.86079,0.25824 -1.93678,0.4304 -1.03295,0.2152 -2.23806,0.34431 -1.2051,0.12912 -2.41021,0.12912 -3.0558,0 -5.3369,-0.90383 -2.23805,-0.90383 -3.74443,-2.45325 -1.46335,-1.59246 -2.19502,-3.74444 -0.68863,-2.15197 -0.68863,-4.64826 z m 15.06383,-2.45325 q -0.043,-0.81775 -0.30128,-1.59246 -0.2152,-0.77472 -0.73167,-1.37727 -0.47344,-0.60255 -1.24815,-0.98991 -0.73167,-0.38735 -1.8507,-0.38735 -1.07598,0 -1.85069,0.38735 -0.77472,0.34432 -1.29119,0.94687 -0.51647,0.60256 -0.81775,1.42031 -0.25824,0.77471 -0.38736,1.59246 z"
             id="path844" />
          <path
             d="m 212.99399,122.33738 q -2.19501,-4.30395 -4.47611,-10.07124 -2.23805,-5.7673 -4.26091,-12.567538 h 6.80025 q 0.43039,1.678538 0.9899,3.658358 0.60256,1.93678 1.20511,3.95963 0.64559,1.97982 1.24815,3.87356 0.64559,1.89374 1.24814,3.44316 0.55951,-1.54942 1.20511,-3.44316 0.64559,-1.89374 1.24814,-3.87356 0.6456,-2.02285 1.20511,-3.95963 0.60255,-1.97982 1.03295,-3.658358 h 6.62808 q -2.02286,6.800238 -4.30395,12.567538 -2.23805,5.76729 -4.43307,10.07124 z"
             id="path846" />
          <path
             d="m 230.51104,100.47331 q 1.6355,-0.473432 4.21787,-0.860787 2.58237,-0.430395 5.42297,-0.430395 2.88365,0 4.77739,0.774711 1.93678,0.731671 3.0558,2.108931 1.11903,1.37727 1.59247,3.27101 0.47343,1.89373 0.47343,4.21787 v 12.78273 h -6.41289 v -12.00802 q 0,-3.09885 -0.81775,-4.39003 -0.81775,-1.29119 -3.0558,-1.29119 -0.68863,0 -1.46334,0.0861 -0.77472,0.043 -1.37727,0.12912 v 17.47404 h -6.41288 z"
             id="path848" />
          <path
             d="m 262.27413,122.33738 h -6.41289 V 99.698602 h 6.41289 z m 0.60255,-29.180782 q 0,1.764619 -1.16207,2.797567 -1.11902,0.989909 -2.66845,0.989909 -1.54942,0 -2.71148,-0.989909 -1.11903,-1.032948 -1.11903,-2.797567 0,-1.76462 1.11903,-2.754528 1.16206,-1.032948 2.71148,-1.032948 1.54943,0 2.66845,1.032948 1.16207,0.989908 1.16207,2.754528 z"
             id="path850" />
          <path
             d="m 274.71253,107.87611 q 0.94687,-1.03295 1.93677,-2.15198 1.03295,-1.11903 1.97982,-2.19501 0.94687,-1.11903 1.76462,-2.10894 0.86079,-0.98991 1.46334,-1.721578 h 7.618 q -2.2811,2.625408 -4.47611,5.035618 -2.15198,2.36718 -4.73435,4.90651 1.29119,1.16206 2.66845,2.79756 1.37727,1.59247 2.66845,3.31405 1.29119,1.72158 2.36717,3.44316 1.07599,1.72158 1.80766,3.14188 h -7.35975 q -0.68863,-1.11903 -1.59246,-2.45325 -0.86079,-1.37727 -1.8507,-2.71149 -0.98991,-1.37726 -2.10894,-2.62541 -1.07599,-1.24815 -2.15197,-2.10894 v 9.89909 h -6.41289 V 89.971675 l 6.41289,-1.032948 z"
             id="path852" />
        </g>
      </g>
    </g>
  </g>
</svg>
